<svg xmlns="http://www.w3.org/2000/svg" width="200" height="240" viewBox="0 0 200 240">
  <rect width="200" height="240" fill="#fff" rx="12"/>
  <rect x="20" y="20" width="160" height="160" fill="#f5f5f5" rx="8" stroke="#ddd"/>
  <!-- QR-like pattern -->
  <rect x="35" y="35" width="30" height="30" fill="#333" rx="2"/>
  <rect x="135" y="35" width="30" height="30" fill="#333" rx="2"/>
  <rect x="35" y="135" width="30" height="30" fill="#333" rx="2"/>
  <rect x="40" y="40" width="20" height="20" fill="#fff"/>
  <rect x="140" y="40" width="20" height="20" fill="#fff"/>
  <rect x="40" y="140" width="20" height="20" fill="#fff"/>
  <rect x="45" y="45" width="10" height="10" fill="#333"/>
  <rect x="145" y="45" width="10" height="10" fill="#333"/>
  <rect x="45" y="145" width="10" height="10" fill="#333"/>
  <!-- Random dots -->
  <rect x="75" y="35" width="5" height="5" fill="#333"/>
  <rect x="85" y="35" width="5" height="5" fill="#333"/>
  <rect x="95" y="40" width="5" height="5" fill="#333"/>
  <rect x="105" y="35" width="5" height="5" fill="#333"/>
  <rect x="75" y="45" width="5" height="5" fill="#333"/>
  <rect x="90" y="50" width="5" height="5" fill="#333"/>
  <rect x="110" y="50" width="5" height="5" fill="#333"/>
  <rect x="80" y="60" width="5" height="5" fill="#333"/>
  <rect x="95" y="60" width="5" height="5" fill="#333"/>
  <rect x="105" y="65" width="5" height="5" fill="#333"/>
  <rect x="75" y="75" width="5" height="5" fill="#333"/>
  <rect x="85" y="80" width="5" height="5" fill="#333"/>
  <rect x="100" y="75" width="5" height="5" fill="#333"/>
  <rect x="115" y="80" width="5" height="5" fill="#333"/>
  <rect x="130" y="75" width="5" height="5" fill="#333"/>
  <rect x="80" y="90" width="5" height="5" fill="#333"/>
  <rect x="95" y="95" width="5" height="5" fill="#333"/>
  <rect x="110" y="90" width="5" height="5" fill="#333"/>
  <rect x="125" y="95" width="5" height="5" fill="#333"/>
  <rect x="75" y="105" width="5" height="5" fill="#333"/>
  <rect x="90" y="110" width="5" height="5" fill="#333"/>
  <rect x="105" y="105" width="5" height="5" fill="#333"/>
  <rect x="120" y="110" width="5" height="5" fill="#333"/>
  <rect x="135" y="105" width="5" height="5" fill="#333"/>
  <rect x="80" y="120" width="5" height="5" fill="#333"/>
  <rect x="95" y="125" width="5" height="5" fill="#333"/>
  <rect x="110" y="120" width="5" height="5" fill="#333"/>
  <rect x="130" y="125" width="5" height="5" fill="#333"/>
  <rect x="140" y="135" width="5" height="5" fill="#333"/>
  <rect x="150" y="140" width="5" height="5" fill="#333"/>
  <rect x="135" y="150" width="5" height="5" fill="#333"/>
  <rect x="145" y="155" width="5" height="5" fill="#333"/>
  <!-- Label -->
  <text x="100" y="205" text-anchor="middle" font-family="sans-serif" font-size="11" font-weight="bold" fill="#1a1a2e">DuitNow QR</text>
  <text x="100" y="222" text-anchor="middle" font-family="sans-serif" font-size="9" fill="#666">Maybank • RLC Café</text>
</svg>
